<?xml version="1.0" standalone="no"?><!DOCTYPE svg PUBLIC "-//W3C//DTD SVG 1.1//EN" "http://www.w3.org/Graphics/SVG/1.1/DTD/svg11.dtd"><svg t="1676511056667" class="icon" viewBox="0 0 1024 1024" version="1.1" xmlns="http://www.w3.org/2000/svg" p-id="5729" xmlns:xlink="http://www.w3.org/1999/xlink" width="200" height="200"><path d="M970.971429 274.285714H896v-78.628571c0-20.114286-16.457143-36.571429-36.571429-36.571429H36.571429c-20.114286 0-36.571429 16.457143-36.571429 36.571429v557.714286c0 20.114286 16.457143 36.571429 36.571429 36.571428h85.942857v78.628572c0 20.114286 16.457143 36.571429 36.571428 36.571428h811.885715c20.114286 0 36.571429-16.457143 36.571428-36.571428V310.857143c0-20.114286-16.457143-36.571429-36.571428-36.571429zM73.142857 230.4h749.714286v484.571429H73.142857V230.4z m861.257143 601.6H195.657143v-42.057143H859.428571c20.114286 0 36.571429-16.457143 36.571429-36.571428V347.428571h38.4v484.571429z" fill="#bfcbd9" p-id="5730"></path><path d="M663.771429 453.485714c10.971429-14.628571 16.457143-32.914286 16.457142-53.028571 0-53.028571-43.885714-96.914286-96.914285-96.914286s-96.914286 43.885714-96.914286 96.914286c0 20.114286 5.485714 38.4 16.457143 53.028571-29.257143 23.771429-49.371429 60.342857-49.371429 102.4v51.2c0 20.114286 16.457143 36.571429 36.571429 36.571429H676.571429c20.114286 0 36.571429-16.457143 36.571428-36.571429v-51.2c0-42.057143-18.285714-78.628571-49.371428-102.4z m-106.057143-53.028571c0-12.8 10.971429-23.771429 23.771428-23.771429s23.771429 10.971429 23.771429 23.771429c0 12.8-10.971429 23.771429-23.771429 23.771428s-23.771429-10.971429-23.771428-23.771428z m82.285714 170.057143h-115.2v-14.628572c0-32.914286 25.6-58.514286 58.514286-58.514285s58.514286 25.6 58.514285 58.514285v14.628572zM177.371429 330.971429h237.714285v73.142857h-237.714285zM177.371429 550.4h85.942857v73.142857H177.371429zM177.371429 440.685714h171.885714v73.142857H177.371429z" fill="#bfcbd9" p-id="5731"></path></svg>