<?xml version="1.0" standalone="no"?><!DOCTYPE svg PUBLIC "-//W3C//DTD SVG 1.1//EN" "http://www.w3.org/Graphics/SVG/1.1/DTD/svg11.dtd"><svg t="1676511013940" class="icon" viewBox="0 0 1024 1024" version="1.1" xmlns="http://www.w3.org/2000/svg" p-id="5530" xmlns:xlink="http://www.w3.org/1999/xlink" width="200" height="200"><path d="M768 729.12V800a128 128 0 0 1-128 128H128a128 128 0 0 1-128-128v-70.88a449.152 449.152 0 0 1 250.816-196.992A223.68 223.68 0 0 1 160 352V288a224 224 0 1 1 448 0v64a223.68 223.68 0 0 1-90.816 180.128A449.152 449.152 0 0 1 768 729.12zM384 128a160 160 0 0 0-160 160v64a160 160 0 0 0 320 0V288a160 160 0 0 0-160-160z m352 64h256a32 32 0 0 1 0 64h-256a32 32 0 0 1 0-64z m64 256h192a32 32 0 0 1 0 64h-192a32 32 0 0 1 0-64z m96 256h96a32 32 0 0 1 0 64h-96a32 32 0 0 1 0-64z m-512-128c-38.08 0-76.128 5.76-114.176 17.248A385.056 385.056 0 0 0 64 747.648V800a64 64 0 0 0 64 64h512a64 64 0 0 0 64-64v-52.352a385.056 385.056 0 0 0-205.824-154.4A393.12 393.12 0 0 0 384 576z" fill="#bfcbd9" p-id="5531"></path></svg>