<?xml version="1.0" standalone="no"?><!DOCTYPE svg PUBLIC "-//W3C//DTD SVG 1.1//EN" "http://www.w3.org/Graphics/SVG/1.1/DTD/svg11.dtd"><svg t="1676697498708" class="icon" viewBox="0 0 1024 1024" version="1.1" xmlns="http://www.w3.org/2000/svg" p-id="8477" xmlns:xlink="http://www.w3.org/1999/xlink" width="200" height="200"><path d="M750.19 677.75c38.66 0 70.01 31.34 70.01 70.01 0 38.66-31.34 70-70.01 70-38.66 0-70-31.34-70-70 0-38.67 31.34-70.01 70-70.01zM320.99 677.75c38.66 0 70 31.34 70 70.01 0 38.66-31.34 70-70 70s-70.01-31.34-70.01-70c0-38.67 31.34-70.01 70.01-70.01z" p-id="8478" fill="#bfcbd9"></path><path d="M911.64 599.23v94.47c0 29.58-23.98 53.53-53.56 53.53h-3.72v0.03c0-57.08-46.35-103.35-103.43-103.35S647.5 690.18 647.5 747.26v-0.03h-38.47V422.4h216.32l86.29 176.83zM149.99 248.87v498.36h67.21c0.57-56.41 46.81-102.72 103.77-102.72s103.19 46.31 103.76 102.72h154.38V248.87H149.99z m325.65 215.47l-81.81 95.5c-7.57 8.84-22.04 3.48-22.04-8.15v-46.8H262.55c-6.65 0-12.1-5.44-12.1-12.1v-73.21c0-6.65 5.45-12.1 12.1-12.1h109.24v-46.8c0-11.63 14.48-16.99 22.04-8.15l81.81 95.5c4.02 4.7 4.02 11.62 0 16.31z" p-id="8479" fill="#bfcbd9"></path></svg>