<?xml version="1.0" standalone="no"?><!DOCTYPE svg PUBLIC "-//W3C//DTD SVG 1.1//EN" "http://www.w3.org/Graphics/SVG/1.1/DTD/svg11.dtd"><svg t="1681946914402" class="icon" viewBox="0 0 1028 1024" version="1.1" xmlns="http://www.w3.org/2000/svg" p-id="2141" xmlns:xlink="http://www.w3.org/1999/xlink" width="200.78125" height="200"><path d="M362.437535 1018.02659H151.234647a143.350376 143.350376 0 0 1-141.677955-143.350377v-716.751882a143.350376 143.350376 0 0 1 141.677955-143.350376h211.202888a35.837594 35.837594 0 0 1 0 71.675188H151.234647a71.675188 71.675188 0 0 0-71.675188 71.675188v716.751882a71.675188 71.675188 0 0 0 71.675188 71.675189h211.202888a35.837594 35.837594 0 0 1 0 71.675188z m497.664723 0h-211.202887a35.598677 35.598677 0 0 1-35.598677-35.837594 35.837594 35.837594 0 0 1 35.598677-35.837594H860.102258a71.675188 71.675188 0 0 0 71.675189-71.675189v-716.751882a71.675188 71.675188 0 0 0-71.675189-71.675188h-211.202887a35.837594 35.837594 0 0 1-35.598677-35.837594 35.837594 35.837594 0 0 1 35.598677-35.837594H860.102258a143.350376 143.350376 0 0 1 141.916873 143.350376v716.751882a143.350376 143.350376 0 0 1-141.916873 143.350377zM503.637656 119.458647a35.837594 35.837594 0 0 1-35.598677-35.837594V47.783459a35.598677 35.598677 0 1 1 71.675188 0v35.359759A35.837594 35.837594 0 0 1 503.637656 119.458647z m0 751.633807a35.837594 35.837594 0 0 1-35.598677-35.837594v-78.60379a35.598677 35.598677 0 1 1 71.675188 0v78.125955a35.837594 35.837594 0 0 1-36.076511 35.837594z m0-187.788993a35.837594 35.837594 0 0 1-35.598677-36.076512V568.62316a35.598677 35.598677 0 1 1 71.675188 0v78.125955a35.837594 35.837594 0 0 1-36.076511 36.076511z m0-188.02791a35.837594 35.837594 0 0 1-35.598677-35.837595v-78.603789a35.598677 35.598677 0 1 1 71.675188 0v78.125955a35.837594 35.837594 0 0 1-35.598677 35.837594z m0-187.788994a35.837594 35.837594 0 0 1-35.598677-36.076511V192.806256a35.598677 35.598677 0 1 1 71.675188 0v78.125955a35.837594 35.837594 0 0 1-35.598677 35.837595z m0 709.345446A35.837594 35.837594 0 0 1 468.038979 979.560905v-35.120842a35.598677 35.598677 0 1 1 71.675188 0V979.560905a35.837594 35.837594 0 0 1-36.076511 36.793264zM250.146407 642.926438a35.598677 35.598677 0 0 1-25.086316-10.512361 36.076511 36.076511 0 0 1 0-50.650466l70.241684-71.675188-65.702255-65.941173a36.315429 36.315429 0 0 1 0-50.650467 35.837594 35.837594 0 0 1 50.411549 0l90.788571 91.983158a36.315429 36.315429 0 0 1 0 50.650467l-95.566917 95.566917a34.881925 34.881925 0 0 1-25.086316 11.229113z m510.805174 0a35.598677 35.598677 0 0 1-25.086315-10.512361l-95.566918-95.566917a36.076511 36.076511 0 0 1 0-50.650467l90.549654-91.983158a35.837594 35.837594 0 0 1 50.411549 50.650466L716.751882 510.566257l70.241684 71.675189a36.076511 36.076511 0 0 1 0 71.675188 35.120842 35.120842 0 0 1-26.041985-10.990196z" fill="#bfcbd9" p-id="2142"></path><path d="M648.899371 1023.999522a41.093775 41.093775 0 0 1-29.386828-12.184782 41.810526 41.810526 0 0 1 29.386828-71.675188H860.102258a65.224421 65.224421 0 0 0 64.746587-65.702256v-716.751882A65.224421 65.224421 0 0 0 860.102258 92.222075h-211.202887a40.61594 40.61594 0 0 1-29.14791-11.945864 43.005113 43.005113 0 0 1-12.4237-29.864662A41.571609 41.571609 0 0 1 648.899371 8.601023H860.102258a148.606557 148.606557 0 0 1 147.650888 149.323308v716.751882A148.606557 148.606557 0 0 1 860.102258 1023.999522z m0-71.675188a29.864662 29.864662 0 0 0-20.785805 51.128301 29.386827 29.386827 0 0 0 20.785805 8.601022H860.102258a136.421775 136.421775 0 0 0 135.705023-137.138526v-716.751882A136.660692 136.660692 0 0 0 860.102258 20.546887h-211.202887a29.864662 29.864662 0 0 0-29.625745 29.864662 30.342496 30.342496 0 0 0 9.078857 21.502556 28.431158 28.431158 0 0 0 20.546888 8.362106H860.102258a77.170286 77.170286 0 0 1 76.692452 77.409203v716.751882A77.170286 77.170286 0 0 1 860.102258 952.324334h-211.202887z m-286.700753 71.675188H151.234647a148.606557 148.606557 0 0 1-147.650888-149.084391v-716.751882A148.606557 148.606557 0 0 1 151.234647 8.601023h211.202888a41.810526 41.810526 0 0 1 0 83.621052H151.234647a65.224421 65.224421 0 0 0-64.746587 65.702256v716.751882a65.224421 65.224421 0 0 0 64.746587 65.463339h211.202888a41.810526 41.810526 0 0 1 0 83.621053zM151.234647 20.546887A136.660692 136.660692 0 0 0 15.529624 157.924331v716.751882a136.421775 136.421775 0 0 0 135.705023 137.138527h211.202888a29.864662 29.864662 0 0 0 0-59.729323H151.234647a77.409203 77.409203 0 0 1-76.692451-77.409204v-716.751882a77.409203 77.409203 0 0 1 76.692451-77.64812h211.202888a29.864662 29.864662 0 0 0 0-59.729324z m352.403009 1001.780214A42.049444 42.049444 0 0 1 462.066047 979.560905v-35.120842a41.571609 41.571609 0 1 1 83.143218 0V979.560905a41.810526 41.810526 0 0 1-41.571609 41.810527z m0-107.751699a29.864662 29.864662 0 0 0-29.625745 29.864661V979.560905a29.864662 29.864662 0 0 0 29.625745 29.864662A29.864662 29.864662 0 0 0 533.2634 979.560905v-35.120842a29.864662 29.864662 0 0 0-29.625744-29.864661z m0-37.98785a42.049444 42.049444 0 0 1-41.571609-41.810527v-78.125955a41.571609 41.571609 0 1 1 83.143218 0v78.125955a41.810526 41.810526 0 0 1-41.571609 41.810527z m0-150.040061a30.103579 30.103579 0 0 0-29.625745 30.103579v78.125955a29.864662 29.864662 0 0 0 29.625745 29.864662 29.864662 29.864662 0 0 0 29.625744-29.864662v-78.125955a30.103579 30.103579 0 0 0-29.625744-30.103579z m0-37.748932a42.049444 42.049444 0 0 1-41.571609-42.049444V568.62316a41.571609 41.571609 0 1 1 83.143218 0v78.125955a41.810526 41.810526 0 0 1-41.571609 42.049444z m0-150.040061a29.864662 29.864662 0 0 0-29.625745 29.864662v78.125955a29.625744 29.625744 0 0 0 8.83994 21.263639 28.431158 28.431158 0 0 0 20.785805 8.83994 30.103579 30.103579 0 0 0 29.625744-30.103579V568.62316a29.864662 29.864662 0 0 0-29.625744-29.864662zM786.037897 659.411731a40.377023 40.377023 0 0 1-27.236571-10.51236 42.766196 42.766196 0 0 1-26.997654-12.184782l-95.566918-95.566918a42.288361 42.288361 0 0 1 0-59.012572l90.310737-91.027489a41.332692 41.332692 0 0 1 29.386827-12.423699 41.571609 41.571609 0 0 1 29.386827 12.423699 42.288361 42.288361 0 0 1 0 59.012572l-60.92391 61.640662L788.42707 575.790679a41.810526 41.810526 0 0 1 38.704602 41.810526 42.527278 42.527278 0 0 1-12.184782 29.625744 40.854857 40.854857 0 0 1-28.908993 12.184782zM645.076694 490.01937a30.581414 30.581414 0 0 0 0 41.810526l95.566917 95.566918a28.431158 28.431158 0 0 0 20.785805 8.83994H764.535341l1.672421 1.672421a28.431158 28.431158 0 0 0 20.546887 8.83994 29.14791 29.14791 0 0 0 20.546887-8.601023 29.625744 29.625744 0 0 0 8.83994-21.263639 30.103579 30.103579 0 0 0-29.386827-30.103579h-2.389173l-76.214617-76.931369 70.002768-71.675188a30.342496 30.342496 0 0 0 0-42.288361 28.431158 28.431158 0 0 0-20.785805-8.83994 29.386827 29.386827 0 0 0-21.024722 8.83994z m-394.69137 158.880001a40.377023 40.377023 0 0 1-29.625744-12.184782 42.288361 42.288361 0 0 1 0-58.534737L286.700753 510.566257l-61.401745-62.118496a42.288361 42.288361 0 0 1 0-58.534737l1.672421-1.433504a40.854857 40.854857 0 0 1 28.431158-11.706947 40.61594 40.61594 0 0 1 29.14791 12.423699l90.788572 91.744241a42.049444 42.049444 0 0 1 0 59.012571l-95.566918 95.566918a41.810526 41.810526 0 0 1-29.386827 13.379369z m-20.30797-63.790918l-1.194586 1.194587a30.103579 30.103579 0 0 0 0 41.810526 28.431158 28.431158 0 0 0 20.785804 8.83994 28.908993 28.908993 0 0 0 20.785805-8.83994l95.566917-97.000421a30.581414 30.581414 0 0 0 0-41.810527l-90.788571-91.744241a28.431158 28.431158 0 0 0-20.785805-8.83994 29.386827 29.386827 0 0 0-21.024722 8.83994 30.103579 30.103579 0 0 0 0 42.049444l69.76385 71.675188zM503.637656 501.726317h-5.972933a40.61594 40.61594 0 0 1-23.891729-11.706947 41.571609 41.571609 0 0 1-12.184782-29.625744v-79.559459a41.571609 41.571609 0 1 1 83.143218 0v78.125955A41.810526 41.810526 0 0 1 503.637656 501.726317z m0-149.801143a29.864662 29.864662 0 0 0-29.625745 29.864662v78.125955a29.14791 29.14791 0 0 0 8.83994 21.024722 28.431158 28.431158 0 0 0 20.785805 8.83994h1.672421a29.864662 29.864662 0 0 0 27.953323-29.864662v-79.081624a29.864662 29.864662 0 0 0-29.625744-29.864662z m0-37.98785a42.049444 42.049444 0 0 1-41.571609-42.049443V192.806256a41.571609 41.571609 0 1 1 83.143218 0v78.125955a42.049444 42.049444 0 0 1-35.598677 41.57161h-5.972932z m-1.911339-13.140451h1.672421a29.864662 29.864662 0 0 0 29.625745-29.864662V192.806256a29.625744 29.625744 0 1 0-59.251489 0v78.125955A29.864662 29.864662 0 0 0 501.726317 300.796873z m1.672421-175.843128a41.093775 41.093775 0 0 1-29.386827-12.184782 41.571609 41.571609 0 0 1-12.184782-29.625745V47.783459a41.571609 41.571609 0 1 1 83.143219 0v35.359759a41.810526 41.810526 0 0 1-41.57161 41.810527z m0-107.7517A29.864662 29.864662 0 0 0 474.011911 47.783459v35.359759a30.103579 30.103579 0 0 0 8.83994 21.263639 29.386827 29.386827 0 0 0 20.785805 8.601023 29.864662 29.864662 0 0 0 29.625744-29.864662V47.783459A29.864662 29.864662 0 0 0 503.637656 17.202045z" fill="#bfcbd9" p-id="2143"></path></svg>