<?xml version="1.0" standalone="no"?><!DOCTYPE svg PUBLIC "-//W3C//DTD SVG 1.1//EN" "http://www.w3.org/Graphics/SVG/1.1/DTD/svg11.dtd"><svg t="1676511774163" class="icon" viewBox="0 0 1024 1024" version="1.1" xmlns="http://www.w3.org/2000/svg" p-id="13768" xmlns:xlink="http://www.w3.org/1999/xlink" width="200" height="200"><path d="M693.4016 228.1472h84.1728a24.9856 24.9856 0 0 0 25.6512-25.6 24.9856 24.9856 0 0 0-25.6512-25.6512h-84.1728a25.0368 25.0368 0 0 0-25.6512 25.6512c0.1024 14.6432 12.8512 25.6 25.6512 25.6z m86.1184 27.4944h-84.1728a25.1392 25.1392 0 0 0-25.7024 25.6512c0 14.592 10.9568 25.6 25.7024 25.6h84.1728a25.0368 25.0368 0 0 0 25.6512-25.6 25.088 25.088 0 0 0-25.6512-25.6512z m0 78.6944h-84.1728a25.088 25.088 0 0 0-25.7024 25.6 25.088 25.088 0 0 0 25.7024 25.6512h84.1728a25.0368 25.0368 0 0 0 25.6512-25.6512 25.088 25.088 0 0 0-25.6512-25.6z m-187.4432 257.6896V198.8608C592.0768 114.688 522.5472 41.472 441.9584 41.472c-82.2272 0-148.1728 71.424-148.1728 155.5456v391.168c-45.7216 42.1888-74.9568 98.816-74.9568 166.6048 0 126.208 98.8672 226.9184 223.2832 226.9184 124.3648 0 223.2832-102.5024 223.2832-226.9184-1.9456-67.7888-27.4432-120.7808-73.3184-162.7648z m-150.1184 266.752c-62.3616 0-114.432-52.2752-114.432-116.6848 0-32.2048 14.0288-64.3072 38.1952-86.4256l30.1056-26.2144V504.8832c0-24.1152 20.0704-46.2336 46.1312-46.2336 24.1664 0 44.3392 22.1184 44.3392 46.2336v126.72l30.1056 26.112c26.1632 24.1152 40.2944 54.2208 40.2944 84.3776 0 64.4096-50.2272 116.6848-114.7392 116.6848z m0 0" fill="#bfcbd9" p-id="13769"></path></svg>