<?xml version="1.0" standalone="no"?><!DOCTYPE svg PUBLIC "-//W3C//DTD SVG 1.1//EN" "http://www.w3.org/Graphics/SVG/1.1/DTD/svg11.dtd"><svg t="1678151688404" class="icon" viewBox="0 0 1024 1024" version="1.1" xmlns="http://www.w3.org/2000/svg" p-id="2220" xmlns:xlink="http://www.w3.org/1999/xlink" width="200" height="200"><path d="M159.8 336.9v375.4c0 24.6 20 44.6 44.6 44.6h436v-70H229.8V305.5h-0.6l282.9-128.2 281 129.9v139.7h70V339.6l46.3 21.4 29.4-63.5-426.4-197.2-428 194 28.9 63.8 46.5-21.2zM888.4 847.8H134.6c-19.3 0-35 15.7-35 35s15.7 35 35 35h753.7c19.3 0 35-15.7 35-35 0.1-19.3-15.6-35-34.9-35z" p-id="2221" fill="#bfcbd9"></path><path d="M312.8 395.7h157.4v70H312.8zM917.7 595.9l-105.1-88.3v53.3H632.2v70h180.4v53.2z" p-id="2222" fill="#bfcbd9"></path></svg>