<?xml version="1.0" standalone="no"?><!DOCTYPE svg PUBLIC "-//W3C//DTD SVG 1.1//EN" "http://www.w3.org/Graphics/SVG/1.1/DTD/svg11.dtd"><svg t="1676697444376" class="icon" viewBox="0 0 1030 1024" version="1.1" xmlns="http://www.w3.org/2000/svg" p-id="7126" xmlns:xlink="http://www.w3.org/1999/xlink" width="201.171875" height="200"><path d="M317.44 1010.176H38.4c-14.336 0-25.6-11.264-25.6-25.6V40.96c0-14.336 11.264-25.6 25.6-25.6h733.696c14.336 0 25.6 11.264 25.6 25.6v276.992c0 14.336-11.264 25.6-25.6 25.6s-25.6-11.264-25.6-25.6V66.56H64v892.416H317.44c14.336 0 25.6 11.264 25.6 25.6s-11.264 25.6-25.6 25.6z" p-id="7127" fill="#bfcbd9"></path><path d="M615.936 250.368H187.904c-14.336 0-25.6-11.264-25.6-25.6s11.264-25.6 25.6-25.6h428.032c14.336 0 25.6 11.264 25.6 25.6s-11.264 25.6-25.6 25.6zM615.936 448.512H187.904c-14.336 0-25.6-11.264-25.6-25.6s11.264-25.6 25.6-25.6h428.032c14.336 0 25.6 11.264 25.6 25.6s-11.264 25.6-25.6 25.6zM463.872 764.928H247.296c-14.336 0-25.6-11.264-25.6-25.6s11.264-25.6 25.6-25.6h216.576c14.336 0 25.6 11.264 25.6 25.6s-11.264 25.6-25.6 25.6z" p-id="7128" fill="#bfcbd9"></path><path d="M280.576 846.848c-6.656 0-12.8-2.56-17.92-7.168l-82.944-81.92c-4.608-4.608-7.68-11.264-7.68-17.92 0-6.656 2.56-13.312 7.68-17.92l82.944-83.456c9.728-10.24 26.112-10.24 36.352 0 10.24 9.728 10.24 26.112 0 36.352l-65.024 65.024L298.496 803.84c10.24 9.728 10.24 26.112 0 36.352-4.608 4.096-11.264 6.656-17.92 6.656zM557.568 800.256h153.6v153.6h-153.6zM829.44 800.256h153.6v153.6h-153.6z" p-id="7129" fill="#bfcbd9"></path><path d="M694.272 647.168h153.6v153.6h-153.6z" p-id="7130" fill="#bfcbd9"></path></svg>