<?xml version="1.0" standalone="no"?><!DOCTYPE svg PUBLIC "-//W3C//DTD SVG 1.1//EN" "http://www.w3.org/Graphics/SVG/1.1/DTD/svg11.dtd"><svg t="1676511094769" class="icon" viewBox="0 0 1024 1024" version="1.1" xmlns="http://www.w3.org/2000/svg" p-id="5955" xmlns:xlink="http://www.w3.org/1999/xlink" width="200" height="200"><path d="M817.50016 669.82912a20.0704 20.0704 0 0 1-11.1616 18.01216l-323.58912 159.70304c-13.25568 6.53824-28.73344-3.16416-28.73344-18.01216v-66.9952l-90.93632 44.8768c-13.25056 6.54336-28.72832-3.15904-28.72832-18.01216v-66.9952l-90.94144 44.88192c-13.25056 6.54336-28.7232-3.16416-28.7232-18.01216v-63.51872l-114.74944 45.72672 402.9952 198.656 417.46944-230.00064-102.90176-38.63552v8.32512z m-39.8848-37.22752c0-13.99808 13.88032-23.69024 26.91584-18.80064l170.65472 64.07168c16 6.01088 17.5872 28.14464 2.6112 36.39808l-464.77824 256.06144a19.84 19.84 0 0 1-18.3552 0.41984L41.88672 747.55584c-15.54944-7.66464-14.6688-30.25408 1.4336-36.66944l183.9616-73.30816c13.09184-5.2224 27.2896 4.48512 27.2896 18.65216v60.85632l90.93632-44.88192c13.25568-6.53824 28.73344 3.16416 28.73344 18.01216v66.9952l90.93632-44.88192c13.25056-6.53824 28.72832 3.16416 28.72832 18.01216v66.9952l283.70944-140.01664v-24.71936zM493.90592 234.68544V797.3376l283.70944-140.01664V176.128L493.90592 234.68544z m-23.95136-36.0192l323.59424-66.79552c12.36992-2.55488 23.95136 6.95296 23.95136 19.65568v518.2976a20.0704 20.0704 0 0 1-11.1616 18.01728l-323.58912 159.70304c-13.25568 6.53824-28.73344-3.16416-28.73344-18.01216V218.3168c0-9.5232 6.66112-17.73568 15.93856-19.65056z m292.49536 188.21632c-21.4272 9.73824-35.2 31.20128-35.2 54.85568v16.64c0 3.45088 0.78336 6.85568 2.29376 9.95328a22.40512 22.40512 0 0 0 30.06464 10.33216l18.00704-8.8832V379.99104l-15.16544 6.89152z m-16.41984-36.56704l43.3152-19.6864c13.20448-6.00064 28.16 3.712 28.16 18.28352v133.37088a20.0704 20.0704 0 0 1-11.1616 18.01216l-29.16864 14.39744c-30.91456 15.2576-68.2752 2.41152-83.44064-28.68736a63.03232 63.03232 0 0 1-6.3744-27.62752v-16.64c0-39.424 22.95296-75.19232 58.67008-91.42272z m-88.08448-214.3232L374.24128 194.56v562.65728l79.77472-39.3728V218.3168c0-9.5232 6.66112-17.73568 15.93856-19.65056l187.99104-38.8096v-23.8592zM493.90592 234.69056v495.65696a20.0704 20.0704 0 0 1-11.1616 18.01216l-119.66464 59.0592c-13.25056 6.54336-28.72832-3.15904-28.72832-18.01216V178.19136c0-9.5232 6.656-17.7408 15.93344-19.65568l323.59424-66.7904c12.36992-2.55488 23.95648 6.95296 23.95648 19.65056V176.2304c0 9.5232-6.656 17.7408-15.93856 19.65568l-187.99104 38.80448z m44.36992-138.81856L254.57152 154.42944v562.65728l79.77984-39.3728V178.19136c0-9.5232 6.656-17.7408 15.93344-19.65568l187.99104-38.79936v-23.86944zM374.24128 690.21696a20.0704 20.0704 0 0 1-11.1616 18.01216l-119.66976 59.0592c-13.25056 6.54336-28.7232-3.16416-28.7232-18.01216V138.06592c0-9.5232 6.656-17.7408 15.93344-19.65568l323.59424-66.79552c12.3648-2.54976 23.95136 6.95296 23.95136 19.65568v64.82944c0 9.5232-6.656 17.73568-15.93344 19.65056L374.24128 194.56v495.65696z" fill="#bfcbd9" p-id="5956"></path></svg>