<?xml version="1.0" standalone="no"?><!DOCTYPE svg PUBLIC "-//W3C//DTD SVG 1.1//EN" "http://www.w3.org/Graphics/SVG/1.1/DTD/svg11.dtd"><svg t="1676697396866" class="icon" viewBox="0 0 1024 1024" version="1.1" xmlns="http://www.w3.org/2000/svg" p-id="5784" xmlns:xlink="http://www.w3.org/1999/xlink" width="200" height="200"><path d="M271.058824 810.164706h481.882352v-60.235294h-481.882352z" fill="#bfcbd9" p-id="5785"></path><path d="M180.705882 57.223529c-66.258824 0-120.470588 54.211765-120.470588 120.470589v662.588235c0 66.258824 54.211765 120.470588 120.470588 120.470588h662.588236c66.258824 0 120.470588-54.211765 120.470588-120.470588v-662.588235c0-66.258824-54.211765-120.470588-120.470588-120.470589h-90.352942v60.235295h90.352942c36.141176 0 60.235294 24.094118 60.235294 60.235294v662.588235c0 30.117647-24.094118 60.235294-60.235294 60.235294h-662.588236c-30.117647 0-60.235294-24.094118-60.235294-60.235294v-662.588235c0-30.117647 24.094118-60.235294 60.235294-60.235294h102.4v-60.235295h-102.4z" fill="#bfcbd9" p-id="5786"></path><path d="M481.882353 551.152941v-373.458823h60.235294v373.458823l102.4-108.423529 42.164706 42.164706-174.682353 180.705882-180.705882-180.705882 42.164706-42.164706 108.423529 108.423529z" fill="#bfcbd9" p-id="5787"></path></svg>