<?xml version="1.0" standalone="no"?><!DOCTYPE svg PUBLIC "-//W3C//DTD SVG 1.1//EN" "http://www.w3.org/Graphics/SVG/1.1/DTD/svg11.dtd"><svg t="1676697413440" class="icon" viewBox="0 0 1024 1024" version="1.1" xmlns="http://www.w3.org/2000/svg" p-id="6878" xmlns:xlink="http://www.w3.org/1999/xlink" width="200" height="200"><path d="M868.48 136.44H743.77a28.81 28.81 0 0 0 0 57.62h124.71a34.16 34.16 0 0 1 34.11 34.13v567.13a34.16 34.16 0 0 1-34.11 34.13H155.72a34.16 34.16 0 0 1-34.11-34.13V228.18a34.16 34.16 0 0 1 34.11-34.13h120.89a28.81 28.81 0 0 0 0-57.62H155.72A91.83 91.83 0 0 0 64 228.18v567.14a91.83 91.83 0 0 0 91.71 91.75h712.77a91.83 91.83 0 0 0 91.71-91.75V228.18a91.83 91.83 0 0 0-91.71-91.74z" p-id="6879" fill="#bfcbd9"></path><path d="M571.32 500.79H453.23v60.52h118.1zM453.23 679.61h118.1v-60.52h-118.1zM453.23 383.18v60.52h118.1v-60.52h105.4c17.89-20.41 17.89-53.29-0.18-73.58L545 161.79c-18.13-20.41-47.59-20.41-65.78 0L347.66 309.6c-18.07 20.34-18.07 53.17-0.18 73.58z" p-id="6880" fill="#bfcbd9"></path></svg>