<?xml version="1.0" standalone="no"?><!DOCTYPE svg PUBLIC "-//W3C//DTD SVG 1.1//EN" "http://www.w3.org/Graphics/SVG/1.1/DTD/svg11.dtd"><svg t="1676511454839" class="icon" viewBox="0 0 1117 1024" version="1.1" xmlns="http://www.w3.org/2000/svg" p-id="9910" xmlns:xlink="http://www.w3.org/1999/xlink" width="218.1640625" height="200"><path d="M917.418667 533.12a198.826667 198.826667 0 0 1 141.653333 59.093333 200.192 200.192 0 0 1 58.24 141.866667 200.106667 200.106667 0 0 1-58.24 141.866667l-125.184 126.293333a23.168 23.168 0 0 1-32.896 0l-125.226667-126.293333a200.277333 200.277333 0 0 1-58.24-141.866667c0-53.546667 20.693333-103.978667 58.24-141.866667a198.826667 198.826667 0 0 1 141.653334-59.136v0.042667z m-32.042667-252.458667l-0.042667 188.330667a266.581333 266.581333 0 0 0-200.618666 375.466667l-213.077334 117.077333V505.045333l413.738667-224.341333v-0.042667zM0 279.722667l413.738667 224.341333v457.472L0 734.250667V279.722667z m913.408 353.578666c-52.565333 0.085333-95.146667 42.666667-95.189333 95.189334 0.042667 52.565333 42.666667 95.146667 95.146666 95.189333 52.608 0 95.189333-42.624 95.274667-95.146667a95.317333 95.317333 0 0 0-95.232-95.232zM91.221333 427.946667l-0.213333 2.304v61.184c0 3.114667 2.005333 6.186667 4.394667 8.32l1.834666 1.365333 196.48 105.898667c7.552 3.541333 15.914667-0.170667 17.365334-7.466667L311.338667 597.333333v-61.184c0-3.157333-2.005333-6.229333-4.394667-8.32l-1.834667-1.365333-196.48-105.898667c-7.552-3.541333-15.914667 0.170667-17.365333 7.424zM442.709333 0l415.786667 228.266667-414.72 224.341333-414.762667-225.365333L442.666667 0z" fill="#bfcbd9" p-id="9911"></path></svg>