<?xml version="1.0" standalone="no"?><!DOCTYPE svg PUBLIC "-//W3C//DTD SVG 1.1//EN" "http://www.w3.org/Graphics/SVG/1.1/DTD/svg11.dtd"><svg t="1676697025932" class="icon" viewBox="0 0 1024 1024" version="1.1" xmlns="http://www.w3.org/2000/svg" p-id="3362" xmlns:xlink="http://www.w3.org/1999/xlink" width="200" height="200"><path d="M97.745455 199.804742" p-id="3363" fill="#bfcbd9"></path><path d="M646.209164 545.553687h-0.633019" p-id="3364" fill="#bfcbd9"></path><path d="M334.494255 402.932829h391.635316v26.273978H334.494255zM334.494255 558.133993h391.635316v26.273978H334.494255zM334.494255 713.335156h391.635316v26.273979H334.494255z" p-id="3365" fill="#bfcbd9"></path><path d="M244.196073 394.320058h43.49952v43.49952H244.196073zM244.196073 549.521222h43.49952v43.49952H244.196073zM244.196073 704.722385h43.49952v43.49952H244.196073z" p-id="3366" fill="#bfcbd9"></path><path d="M692.857018 187.553978c-10.882327 0-19.705484-8.823156-19.705483-19.705483s8.823156-19.705484 19.705483-19.705484h108.583098c25.914647 0 49.466647 10.593745 66.524626 27.651724 17.061702 17.061702 27.653585 40.613702 27.653585 66.526487v579.50208c0 25.918371-10.591884 49.470371-27.649862 66.528349-17.057978 17.057978-40.609978 27.649862-66.528349 27.649862H221.938036c-25.918371 0-49.470371-10.591884-66.528349-27.649862-17.057978-17.057978-27.649862-40.609978-27.649862-66.528349V242.321222c0-25.918371 10.591884-49.470371 27.649862-66.528349 17.057978-17.057978 40.609978-27.649862 66.528349-27.649862h121.991913c10.882327 0 19.705484 8.823156 19.705484 19.705484s-8.823156 19.705484-19.705484 19.705483h-121.991913c-15.039767 0-28.729716 6.168204-38.664378 16.102866-9.934662 9.934662-16.102865 23.624611-16.102865 38.664378v579.50208c0 15.039767 6.168204 28.729716 16.102865 38.664378 9.934662 9.934662 23.624611 16.102865 38.664378 16.102865h579.50208c15.039767 0 28.729716-6.168204 38.664379-16.102865 9.934662-9.934662 16.102865-23.624611 16.102865-38.664378V242.321222c0-15.034182-6.170065-28.725993-16.106589-38.662517-9.934662-9.934662-23.622749-16.104727-38.660655-16.104727H692.857018z" p-id="3367" fill="#bfcbd9"></path><path d="M465.670516 101.176785c-1.18784-2.228596-2.556276-4.702953-4.096-7.419345-2.546967-4.492567-5.209367-9.102429-7.983476-13.831447-2.772247-4.729018-5.555665-9.221585-8.352116-13.477702-1.660742-2.528349-3.196742-4.777425-4.604277-6.749091l1.117091-6.486575 11.208146-8.288814 6.706269 0.692596c1.491316 1.859956 3.099927 3.920989 4.823971 6.171928 2.895127 3.783215 5.741847 7.763782 8.542021 11.93984 2.800175 4.17792 5.443956 8.275782 7.93507 12.295447 1.457804 2.353338 2.7648 4.529804 3.913541 6.53312l-1.212043 7.302051-12.470458 12.055272-5.527739-0.73728z m161.93536-19.359185h-33.488523l-4.87424 4.654545-6.319011 134.61504c-0.281135 5.989469-1.100335 10.876742-2.459462 14.659957-1.360989 3.783215-3.395956 6.857076-6.108625 9.221585-2.710807 2.364509-6.224058 4.138822-10.53603 5.321077-4.311971 1.182255-9.631185 2.008902-15.959505 2.481803l-12.194909 1.025862-5.808873-4.058764-4.302662-16.633483 3.509528-4.693644 13.589411-0.703767c3.159505-0.158255 5.736262-0.472902 7.730269-0.945804 1.992145-0.472902 3.524422-1.221353 4.598691-2.247214 1.072407-1.024 1.807825-2.403607 2.20253-4.13696 0.396567-1.733353 0.662807-4.019665 0.794997-6.857077l5.963403-127.044887-4.43485-4.658269h-51.931695l-4.436713-4.654545 0.750313-15.991157 4.87424-4.654545h120.029556l4.434851 4.654545-0.750312 15.991157-4.872379 4.654545z m-123.663825 105.844364l4.755084 16.249949-2.731288 6.94272c-1.366575 0.897396-2.997527 1.984698-4.879825 3.25632-4.311971 2.917469-9.162007 6.26688-14.5408 10.050094-5.380655 3.783215-10.889775 7.841978-16.531084 12.178153-4.122065 3.166953-7.881076 6.188684-11.275171 9.059607l-6.317149-0.536203-8.804538-11.848611 0.916015-6.711855c0.949527-1.087302 1.57696-2.195084 1.871127-3.323345 0.575302-2.204393 0.938356-4.887273 1.08544-8.039331l3.278662-69.825629-4.436713-4.656408h-19.53792l-4.434851-4.654545 0.772655-16.464058 4.872378-4.654546h43.892363l4.436713 4.654546-3.837207 81.724509 3.610065 1.824582 22.717906-16.801048 5.118138 1.575099z" p-id="3368" fill="#bfcbd9"></path></svg>