<?xml version="1.0" standalone="no"?><!DOCTYPE svg PUBLIC "-//W3C//DTD SVG 1.1//EN" "http://www.w3.org/Graphics/SVG/1.1/DTD/svg11.dtd"><svg t="1676697313750" class="icon" viewBox="0 0 1253 1024" version="1.1" xmlns="http://www.w3.org/2000/svg" p-id="3592" xmlns:xlink="http://www.w3.org/1999/xlink" width="244.7265625" height="200"><path d="M187.272149 697.653884h188.527185V552.242372c0-11.856019-4.847994-22.63452-12.66374-30.451932-7.817411-7.815746-18.595913-12.66374-30.451932-12.66374H197.07972c-2.684633 0-5.136109 1.107494-6.918093 2.889478-1.781983 1.781983-2.889478 4.23346-2.889478 6.918092v178.719614z m188.527185 47.001062H140.271088V518.93427c0-15.659804 6.376836-29.867374 16.659046-40.149585 10.282211-10.282211 24.489782-16.659047 40.149586-16.659047h135.603942c24.829524 0 47.36412 10.117336 63.683424 26.433309 16.315973 16.319304 26.433309 38.8539 26.43331 63.683425v145.722943h145.411512c24.832855 0 47.367451 10.117336 63.683425 26.433309 16.315973 16.319304 26.433309 38.8539 26.433309 63.683425v192.412574H375.799334V744.654946z m47.001062 188.838616h188.527184v-145.411513c0-11.856019-4.847994-22.63452-12.66374-30.451932-7.815746-7.815746-18.594248-12.66374-30.451932-12.66374h-145.411512v188.527185z" p-id="3593" fill="#bfcbd9"></path><path d="M658.328642 980.494623l-427.940821 0.817714c-24.829524 0-47.36412-10.119001-63.681759-26.43664-16.315973-16.315973-26.434975-38.848904-26.434974-63.680093V518.93427c0-12.978502 10.522029-23.500531 23.50053-23.500531s23.500531 10.522029 23.500531 23.500531v372.261334c0 11.856019 4.84966 22.632855 12.665406 30.448601 7.817411 7.817411 18.595913 12.667071 30.450266 12.66707h427.940821v46.183348zM43.494399 502.456753c-9.176382 9.124754-24.015141 9.084785-33.139895-0.091598-9.124754-9.176382-9.084785-24.015141 0.091597-33.139895L473.117279 6.817216c9.176382-9.124754 24.015141-9.084785 33.139895 0.091597 9.124754 9.176382 9.084785 24.015141-0.091597 33.139895L43.494399 502.456753z" p-id="3594" fill="#bfcbd9"></path><path d="M968.836755 469.22526c9.176382 9.124754 9.216352 23.963514 0.091598 33.139895-9.124754 9.176382-23.963514 9.216352-33.139896 0.091598L473.117279 40.048708c-9.176382-9.124754-9.216352-23.963514-0.091597-33.139895 9.124754-9.176382 23.963514-9.216352 33.139895-0.091597l462.671178 462.408044zM734.815701 919.122781c-5.982135-11.507949-1.502195-25.687208 10.005753-31.669343 11.507949-5.982135 25.687208-1.502195 31.669343 10.005754 12.555489 24.138381 31.464498 44.328087 54.447088 58.285847 22.206511 13.48645 48.400002 21.253899 76.540351 21.253899 28.142015 0 54.33384-7.767449 76.540352-21.253899 22.98259-13.95776 41.891599-34.149131 54.448753-58.285847 5.982135-11.507949 20.161394-15.987889 31.669343-10.005754s15.987889 20.161394 10.005754 31.669343c-16.42589 31.572749-41.390312 58.122637-71.888875 76.645272-29.497655 17.914762-63.999851 28.231947-100.775327 28.231947-36.773809 0-71.277672-10.317184-100.775326-28.231947-30.498563-18.522635-55.46465-45.072523-71.887209-76.645272z m344.845435-180.145201c6.032097 11.456321 1.633762 25.637246-9.822559 31.669343-11.456321 6.032097-25.637246 1.633762-31.669343-9.822559-12.553823-23.841939-31.472825-43.845119-54.508708-57.759578-22.206511-13.409842-48.275097-21.128994-76.18229-21.128995-27.908858 0-53.977444 7.719152-76.182289 21.13066-23.035883 13.912794-41.954884 33.915974-54.507042 57.757913-6.032097 11.456321-20.213021 15.854656-31.669343 9.822559-11.456321-6.032097-15.854656-20.213021-9.822559-31.669343 16.564119-31.462833 41.471917-57.826195 71.763969-76.120669 29.342772-17.723241 63.710071-27.922181 100.417264-27.922181 36.708859 0 71.074492 10.200606 100.417264 27.920516 30.290387 18.29614 55.199851 44.657837 71.765636 76.122334z" p-id="3595" fill="#bfcbd9"></path><path d="M712.029628 733.09537l41.368662 23.883574 41.366997 23.883574c4.291749 2.478123 6.749887 6.733233 6.749887 11.689478 0 4.956245-2.458138 9.211355-6.749887 11.689478l-41.366997 23.883574-41.366996 23.883574c-4.293414 2.478123-9.208025 2.478123-13.499774 0-4.291749-2.478123-6.749887-6.733233-6.749886-11.689478l0.001665-47.767148v-47.767148c0-4.956245 2.456472-9.211355 6.748221-11.689478 4.293414-2.478123 9.206359-2.478123 13.498108 0zM1124.826921 820.274329v47.768813l0.001666 47.765483c0 4.957911-2.456472 9.213021-6.749887 11.691144-4.291749 2.478123-9.206359 2.478123-13.498108-0.001666l-41.368662-23.881908-41.366997-23.883574c-4.291749-2.478123-6.749887-6.734898-6.749886-11.691144 0-4.956245 2.456472-9.211355 6.749886-11.689478l41.366997-23.883574 41.368662-23.883574c4.293414-2.478123 9.206359-2.478123 13.498108 0 4.293414 2.478123 6.748221 6.733233 6.748221 11.689478z" p-id="3596" fill="#bfcbd9"></path></svg>