<?xml version="1.0" standalone="no"?><!DOCTYPE svg PUBLIC "-//W3C//DTD SVG 1.1//EN" "http://www.w3.org/Graphics/SVG/1.1/DTD/svg11.dtd"><svg t="1676511251693" class="icon" viewBox="0 0 1024 1024" version="1.1" xmlns="http://www.w3.org/2000/svg" p-id="7324" xmlns:xlink="http://www.w3.org/1999/xlink" width="200" height="200"><path d="M451.657143 320h268.8v73.142857H451.657143zM305.371429 318.171429h73.142857v73.142857h-73.142857zM451.657143 484.571429h268.8v73.142857H451.657143zM305.371429 484.571429h73.142857v73.142857h-73.142857zM451.657143 650.971429h268.8v73.142857H451.657143zM305.371429 649.142857h73.142857v73.142857h-73.142857z" fill="#bfcbd9" p-id="7325"></path><path d="M877.714286 82.285714H146.285714c-20.114286 0-36.571429 16.457143-36.571428 36.571429v804.571428c0 20.114286 16.457143 36.571429 36.571428 36.571429h731.428572c20.114286 0 36.571429-16.457143 36.571428-36.571429v-804.571428c0-20.114286-16.457143-36.571429-36.571428-36.571429z m-36.571429 804.571429H182.857143v-731.428572h658.285714v731.428572z" fill="#bfcbd9" p-id="7326"></path></svg>