<?xml version="1.0" standalone="no"?><!DOCTYPE svg PUBLIC "-//W3C//DTD SVG 1.1//EN" "http://www.w3.org/Graphics/SVG/1.1/DTD/svg11.dtd"><svg t="1679362664792" class="icon" viewBox="0 0 1024 1024" version="1.1" xmlns="http://www.w3.org/2000/svg" p-id="2832" xmlns:xlink="http://www.w3.org/1999/xlink" width="200" height="200"><path d="M737.183 792.157H293.299c-16.352 0-32.676-16.844-32.676-30.585 0-13.701 13.82-25.437 30.185-25.437h442.598c16.352 0 30.172 10.665 31.417 25.437-0.001 13.755-11.289 30.585-27.64 30.585zM531.569 626.436c-9.719 9.719-35.65 4.663-40.779-0.467L363.374 496.552c-5.143-5.143-13.28-21.52 1.977-37.455 18.692-15.597 33.566-6.228 38.705-1.09l107.709 108.71 189.842-189.841c7.714-7.714 24.911-16.92 40.457-1.563 12.075 8.477 12.045 28.287 4.351 35.982z m233.253-506.545c0 66.389-38.763 112.044-105.042 112.044H344.656c-65.985 0-84.033-57.061-84.033-112.044h-94.537c-44.237 0-73.529 26.773-73.529 72.029v691.472c0 50.77 28.338 76.831 78.781 76.831h682.77c42.083 0 78.782-25.022 78.782-76.831V191.92c0-49.983-34.59-72.029-84.033-72.029z m-116.1-56.023H376.691c-33.377 0-60.046 25.025-60.046 55.954 0 30.996 26.733 56.09 60.046 56.09h273.705c31.687 0 58.404-25.094 58.404-56.09 0.018-30.927-26.686-55.954-60.078-55.954z" p-id="2833" fill="#bfcbd9"></path></svg>