<?xml version="1.0" standalone="no"?><!DOCTYPE svg PUBLIC "-//W3C//DTD SVG 1.1//EN" "http://www.w3.org/Graphics/SVG/1.1/DTD/svg11.dtd"><svg t="1676697469064" class="icon" viewBox="0 0 1024 1024" version="1.1" xmlns="http://www.w3.org/2000/svg" p-id="7413" xmlns:xlink="http://www.w3.org/1999/xlink" width="200" height="200"><path d="M896 128v725.333333a42.666667 42.666667 0 0 1-42.666667 42.666667H170.666667a42.666667 42.666667 0 0 1-42.666667-42.666667v-298.666666a42.666667 42.666667 0 0 1 85.333333 0v256h597.333334V170.666667H213.333333v85.333333a42.666667 42.666667 0 1 1-85.333333 0V128a42.666667 42.666667 0 0 1 42.666667-42.666667h682.666666a42.666667 42.666667 0 0 1 42.666667 42.666667z m-299.093333 470.186667v-152.106667H398.933333v45.525333a20.565333 20.565333 0 0 1-31.061333 17.493334L223.189333 422.826667a20.309333 20.309333 0 0 1 0-34.986667l144.682667-86.272a20.608 20.608 0 0 1 31.061333 17.493333v45.525334l240.64-0.426667a42.666667 42.666667 0 0 1 42.666667 42.666667v234.026666a42.666667 42.666667 0 0 1-42.666667 42.666667h-256a42.666667 42.666667 0 1 1 0-85.333333h213.333334z" fill="#bfcbd9" p-id="7414"></path></svg>