<?xml version="1.0" standalone="no"?><!DOCTYPE svg PUBLIC "-//W3C//DTD SVG 1.1//EN" "http://www.w3.org/Graphics/SVG/1.1/DTD/svg11.dtd"><svg t="1676696062184" class="icon" viewBox="0 0 1024 1024" version="1.1" xmlns="http://www.w3.org/2000/svg" p-id="3112" xmlns:xlink="http://www.w3.org/1999/xlink" width="200" height="200"><path d="M855.04 1006.592H181.76c-14.336 0-25.6-11.264-25.6-25.6V173.056c0-14.336 11.264-25.6 25.6-25.6h178.176c12.288-76.288 78.848-134.656 158.72-134.656s145.92 58.368 158.208 134.656H855.04c14.336 0 25.6 11.264 25.6 25.6v807.936c0 14.336-11.264 25.6-25.6 25.6z m-647.68-51.2H829.44V198.656h-176.128c-14.336 0-25.6-11.264-25.6-25.6 0-59.904-49.152-109.056-109.056-109.056-60.416 0-109.568 49.152-109.568 109.056 0 14.336-11.264 25.6-25.6 25.6H207.36v756.736z" p-id="3113" fill="#bfcbd9"></path><path d="M518.656 139.264c18.432 0 33.792 15.36 33.792 33.792s-15.36 33.792-33.792 33.792-33.792-15.36-33.792-33.792 14.848-33.792 33.792-33.792zM471.04 617.472c-6.656 0-13.312-2.56-17.92-7.68L316.928 473.6c-10.24-10.24-10.24-26.112 0-36.352s26.112-10.24 36.352 0l117.76 118.272 212.992-213.504c10.24-10.24 26.112-10.24 36.352 0s10.24 26.112 0 36.352l-230.912 231.424c-5.12 5.12-11.776 7.68-18.432 7.68zM686.592 773.12H348.16c-14.336 0-25.6-11.264-25.6-25.6s11.264-25.6 25.6-25.6h338.432c14.336 0 25.6 11.264 25.6 25.6s-11.264 25.6-25.6 25.6z" p-id="3114" fill="#bfcbd9"></path></svg>