<?xml version="1.0" standalone="no"?><!DOCTYPE svg PUBLIC "-//W3C//DTD SVG 1.1//EN" "http://www.w3.org/Graphics/SVG/1.1/DTD/svg11.dtd"><svg t="1678349807420" class="icon" viewBox="0 0 1030 1024" version="1.1" xmlns="http://www.w3.org/2000/svg" p-id="2172" xmlns:xlink="http://www.w3.org/1999/xlink" width="201.171875" height="200"><path d="M217.088 289.28c-14.336 0-25.6-11.264-25.6-25.6s11.264-25.6 25.6-25.6l357.888-1.536c14.336 0 25.6 11.264 25.6 25.6s-11.264 25.6-25.6 25.6l-357.888 1.536zM217.6 454.144c-14.336 0-25.6-11.264-25.6-25.6s11.264-25.6 25.6-25.6l357.888-1.536c14.336 0 25.6 11.264 25.6 25.6s-11.264 25.6-25.6 25.6l-357.888 1.536zM579.584 1006.592c-14.336 0-25.6-11.264-25.6-25.6l-1.536-295.936c0-14.336 11.264-25.6 25.6-25.6l379.392-1.536c6.656 0 13.312 2.56 17.92 7.168 4.608 4.608 7.68 11.264 7.68 17.92l1.536 295.936c0 14.336-11.264 25.6-25.6 25.6l-379.392 2.048c0.512 0 0.512 0 0 0z m24.576-295.936l1.024 244.736 328.192-1.536-1.024-244.736-328.192 1.536z" p-id="2173" fill="#bfcbd9"></path><path d="M578.56 710.656c-9.216 0-17.408-4.608-22.016-12.288-4.608-7.68-5.12-17.408-0.512-25.088l56.832-105.472c4.608-8.192 12.8-13.312 22.528-13.312l260.096-1.024c9.216 0 17.408 4.608 22.016 12.288l62.464 104.96c4.608 7.68 4.608 17.92 0.512 25.6-4.608 8.192-12.8 12.8-22.016 12.8l-379.904 1.536z m72.192-105.472l-29.184 54.272 291.84-1.536-32.256-54.272-230.4 1.536zM226.816 719.36c-14.336 0-25.6-11.264-25.6-25.6s11.264-25.6 25.6-25.6l181.76-1.024c14.336 0 25.6 11.264 25.6 25.6s-11.264 25.6-25.6 25.6l-181.76 1.024z" p-id="2174" fill="#bfcbd9"></path><path d="M380.416 787.968c-6.656 0-13.312-2.56-17.92-7.68-10.24-10.24-10.24-26.112 0-36.352l51.2-51.2-51.712-51.2c-10.24-9.728-10.24-26.112 0-36.352 9.728-10.24 26.112-10.24 36.352 0l70.144 69.12c4.608 4.608 7.68 11.264 7.68 17.92s-2.56 13.312-7.68 17.92L399.36 779.776c-5.632 5.632-12.288 8.192-18.944 8.192z" p-id="2175" fill="#bfcbd9"></path><path d="M45.568 1007.104c-6.656 0-13.312-2.56-17.92-7.168-4.608-4.608-7.68-11.264-7.68-17.92L15.872 37.888c0-6.656 2.56-13.312 7.168-17.92S34.304 12.288 40.96 12.288l733.696-3.072c6.656 0 13.312 2.56 17.92 7.168 4.608 4.608 7.68 11.264 7.68 17.92l1.024 276.992c0 14.336-11.264 25.6-25.6 25.6s-25.6-11.264-25.6-25.6l-1.024-251.392-681.984 3.584 4.096 892.416 253.44-1.024c14.336 0 25.6 11.264 25.6 25.6s-11.264 25.6-25.6 25.6l-279.04 1.024z" p-id="2176" fill="#bfcbd9"></path></svg>