<?xml version="1.0" standalone="no"?><!DOCTYPE svg PUBLIC "-//W3C//DTD SVG 1.1//EN" "http://www.w3.org/Graphics/SVG/1.1/DTD/svg11.dtd"><svg t="1676697331816" class="icon" viewBox="0 0 1024 1024" version="1.1" xmlns="http://www.w3.org/2000/svg" p-id="3913" xmlns:xlink="http://www.w3.org/1999/xlink" width="200" height="200"><path d="M512 32a480 480 0 1 1 0 960 480 480 0 0 1 0-960z m0 64a416 416 0 1 0 0 832 416 416 0 0 0 0-832zM423.744 280.256l45.248 45.248L410.432 384H608a160 160 0 0 1 10.496 319.68L608 704H320v-64h288a96 96 0 0 0 9.216-191.552L608 448H410.496l58.496 58.496-45.248 45.248L288 416l135.744-135.744z" fill="#bfcbd9" p-id="3914"></path></svg>