<?xml version="1.0" standalone="no"?><!DOCTYPE svg PUBLIC "-//W3C//DTD SVG 1.1//EN" "http://www.w3.org/Graphics/SVG/1.1/DTD/svg11.dtd"><svg t="1676696033127" class="icon" viewBox="0 0 1024 1024" version="1.1" xmlns="http://www.w3.org/2000/svg" p-id="2394" xmlns:xlink="http://www.w3.org/1999/xlink" width="200" height="200"><path d="M700.86 223.99c0-16.57-13.43-30-30-30h-440c-16.57 0-30 13.43-30 30s13.43 30 30 30h440c16.57 0 30-13.43 30-30zM700.86 405.91c0-16.57-13.43-30-30-30h-440c-16.57 0-30 13.43-30 30s13.43 30 30 30h440c16.57 0 30-13.43 30-30zM384.07 587.82c0-16.57-13.43-30-30-30H230.86c-16.57 0-30 13.43-30 30s13.43 30 30 30h123.21c16.57 0 30-13.43 30-30zM354.07 739.74H230.86c-16.57 0-30 13.43-30 30s13.43 30 30 30h123.21c16.57 0 30-13.43 30-30s-13.43-30-30-30z" p-id="2395" fill="#bfcbd9"></path><path d="M491.48 930.35H95.49V93.33h710.75v334.49a329.837 329.837 0 0 1 60 20.38V63.33c0-16.57-13.43-30-30-30H65.49c-16.57 0-30 13.43-30 30v897.02c0 16.57 13.43 30 30 30h484.49c-9.75-7.8-19.15-16.17-28.11-25.13a338.591 338.591 0 0 1-30.39-34.87z" p-id="2396" fill="#bfcbd9"></path><path d="M922.03 545.08c-49.39-49.39-115.05-76.58-184.89-76.58s-135.5 27.2-184.89 76.58c-49.39 49.39-76.58 115.05-76.58 184.89s27.2 135.5 76.58 184.89c49.39 49.39 115.05 76.58 184.89 76.58s135.5-27.2 184.89-76.58 76.58-115.05 76.58-184.89-27.2-135.51-76.58-184.89zM737.14 931.44c-111.09 0-201.47-90.38-201.47-201.47S626.05 528.5 737.14 528.5s201.47 90.38 201.47 201.47-90.38 201.47-201.47 201.47z" p-id="2397" fill="#bfcbd9"></path><path d="M814.72 580.85c-7.64 0-14.67 4.18-18.32 10.9l-39.6 72.96c-8.76 16.41-14.95 28.62-18.72 36.96-7.85-16.49-43.26-82.45-57.72-109.33a21.844 21.844 0 0 0-19.24-11.49c-16.85 0-27.36 18.28-18.88 32.84l58.47 100.43h-41.94c-10.34 0-18.72 8.38-18.72 18.72 0 10.34 8.38 18.72 18.72 18.72h55.84v32.59h-55.65c-10.45 0-18.91 8.47-18.91 18.91 0 10.45 8.47 18.91 18.91 18.91h55.65v45.59c0 12.43 10.07 22.5 22.5 22.5s22.5-10.07 22.5-22.5v-45.59h53.01c10.45 0 18.91-8.47 18.91-18.91 0-10.45-8.47-18.91-18.91-18.91h-53.01v-32.59h53.2c10.34 0 18.72-8.38 18.72-18.72 0-10.34-8.38-18.72-18.72-18.72H772.8l59.89-101.88c8.17-13.88-1.85-31.39-17.97-31.39z" p-id="2398" fill="#bfcbd9"></path></svg>