<?xml version="1.0" standalone="no"?><!DOCTYPE svg PUBLIC "-//W3C//DTD SVG 1.1//EN" "http://www.w3.org/Graphics/SVG/1.1/DTD/svg11.dtd"><svg t="1676701855062" class="icon" viewBox="0 0 1024 1024" version="1.1" xmlns="http://www.w3.org/2000/svg" p-id="3677" xmlns:xlink="http://www.w3.org/1999/xlink" width="200" height="200"><path d="M128.256 624.192a32 32 0 0 0-32 32v192a32 32 0 0 0 64 0v-192a32 32 0 0 0-32-32zM384.256 400.128a32 32 0 0 0-32 32v416a32 32 0 0 0 64 0v-416a32 32 0 0 0-32-32zM640.256 624.192a32 32 0 0 0-32 32v192a32 32 0 0 0 64 0v-192a32 32 0 0 0-32-32zM896.256 400.128a32 32 0 0 0-32 32v416a32 32 0 0 0 64 0v-416a32 32 0 0 0-32-32z" fill="#bfcbd9" p-id="3678"></path><path d="M907.392 146.432a32.768 32.768 0 0 0-15.872-2.24h-123.264a32 32 0 0 0 0 64h47.616L639.744 384.256 408.896 153.408a33.472 33.472 0 0 0-25.088-9.536 33.024 33.024 0 0 0-24.704 9.472L105.408 407.104a33.152 33.152 0 0 0 46.784 46.848l231.232-231.296 231.168 231.168c6.848 6.848 16 9.92 25.088 9.472a32.96 32.96 0 0 0 25.088-9.472l199.424-199.424v49.728a32 32 0 0 0 64 0v-128a31.68 31.68 0 0 0-20.8-29.696z" fill="#bfcbd9" p-id="3679"></path></svg>