<?xml version="1.0" standalone="no"?><!DOCTYPE svg PUBLIC "-//W3C//DTD SVG 1.1//EN" "http://www.w3.org/Graphics/SVG/1.1/DTD/svg11.dtd"><svg t="1681087499853" class="icon" viewBox="0 0 1024 1024" version="1.1" xmlns="http://www.w3.org/2000/svg" p-id="2184" xmlns:xlink="http://www.w3.org/1999/xlink" width="200" height="200"><path d="M780.8 102.4H243.2A140.8 140.8 0 0 0 102.4 243.2v537.6A140.8 140.8 0 0 0 243.2 921.6h537.6A140.8 140.8 0 0 0 921.6 780.8V243.2A140.8 140.8 0 0 0 780.8 102.4zM243.2 179.2h537.6c35.328 0 64 28.672 64 64v537.6c0 35.328-28.672 64-64 64H243.2c-35.328 0-64-28.672-64-64V243.2c0-35.328 28.672-64 64-64z" fill="#bfcbd9" p-id="2185"></path><path d="M294.4 576m38.4 0l0 0q38.4 0 38.4 38.4l0 115.2q0 38.4-38.4 38.4l0 0q-38.4 0-38.4-38.4l0-115.2q0-38.4 38.4-38.4Z" fill="#bfcbd9" p-id="2186"></path><path d="M512 473.6a38.4 38.4 0 0 1 38.4 38.4v217.6a38.4 38.4 0 1 1-76.8 0V512a38.4 38.4 0 0 1 38.4-38.4zM691.2 371.2a38.4 38.4 0 0 1 38.4 38.4v320a38.4 38.4 0 1 1-76.8 0V409.6a38.4 38.4 0 0 1 38.4-38.4z" fill="#bfcbd9" p-id="2187"></path></svg>