<?xml version="1.0" standalone="no"?><!DOCTYPE svg PUBLIC "-//W3C//DTD SVG 1.1//EN" "http://www.w3.org/Graphics/SVG/1.1/DTD/svg11.dtd"><svg t="1678146928521" class="icon" viewBox="0 0 1024 1024" version="1.1" xmlns="http://www.w3.org/2000/svg" p-id="2840" xmlns:xlink="http://www.w3.org/1999/xlink" width="200" height="200"><path d="M773.4 500.3c11.6 0 21-9.4 21-21V242.7c0-11.6-9.4-21-21-21H646.3c-5.2-29-30.5-51.1-61-51.1H422.9c-30.5 0-55.7 22.1-61 51.1H244.7c-11.6 0-21 9.4-21 21V807c0 11.6 9.4 21 21 21h528.6c11.6 0 21-9.4 21-21v-50.4c0-11.6-9.4-21-21-21s-21 9.4-21 21V786H265.7V263.7h98.2c1.8 0 3.3-0.6 5-1 10.6 19.1 30.7 32.1 54 32.1h162.4c22.9 0 42.7-12.6 53.5-31.1h113.6v215.6c0 11.6 9.4 21 21 21zM585.3 252.8H422.9c-11.1 0-20.1-9-20.1-20.1s9-20.1 20.1-20.1h162.4c11.1 0 20.1 9 20.1 20.1s-9 20.1-20.1 20.1z" fill="#bfcbd9" p-id="2841"></path><path d="M322.8 457.1h181c11.6 0 21-9.4 21-21s-9.4-21-21-21h-181c-11.6 0-21 9.4-21 21s9.4 21 21 21zM322.8 557.8h265c11.6 0 21-9.4 21-21s-9.4-21-21-21h-265c-11.6 0-21 9.4-21 21s9.4 21 21 21z" fill="#bfcbd9" p-id="2842"></path><path d="M614.1 760.8c-3.6 0-7.3-0.9-10.6-2.9-10-5.9-13.3-18.8-7.5-28.7 2.1-3.5 52-87.3 141-140.6 10-5.9 22.8-2.7 28.8 7.2 5.9 9.9 2.7 22.8-7.2 28.8-79.8 47.8-125.9 125.1-126.3 125.8-4 6.7-11 10.4-18.2 10.4z" fill="#bfcbd9" p-id="2843"></path><path d="M756.9 693.1l99-124.6-157.4-23.4z" fill="#bfcbd9" p-id="2844"></path></svg>