<?xml version="1.0" standalone="no"?><!DOCTYPE svg PUBLIC "-//W3C//DTD SVG 1.1//EN" "http://www.w3.org/Graphics/SVG/1.1/DTD/svg11.dtd"><svg t="1676937431271" class="icon" viewBox="0 0 1024 1024" version="1.1" xmlns="http://www.w3.org/2000/svg" p-id="2860" xmlns:xlink="http://www.w3.org/1999/xlink" width="200" height="200"><path d="M801.61 98.48H222.37A30.58 30.58 0 0 0 192 129.09v768.85a30.58 30.58 0 0 0 30.38 30.6h358.67a220.69 220.69 0 0 1-95.86-182.4c0-121.77 98-220.48 218.8-220.48a216.71 216.71 0 0 1 128 41.66V129.09a30.58 30.58 0 0 0-30.38-30.61z m-326.46 565.6a12.08 12.08 0 0 1-12 12.1H322.8a12.08 12.08 0 0 1-12-12.1v-52.81a12.08 12.08 0 0 1 12-12.09h140.35a12.08 12.08 0 0 1 12 12.09zM639.51 483.9a12.09 12.09 0 0 1-12 12.1H322.8a12.09 12.09 0 0 1-12-12.1v-52.81a12.08 12.08 0 0 1 12-12.09h304.71a12.08 12.08 0 0 1 12 12.09z m73.67-180.18a12.08 12.08 0 0 1-12 12.09H322.8a12.08 12.08 0 0 1-12-12.09v-52.81a12.08 12.08 0 0 1 12-12.09h378.38a12.08 12.08 0 0 1 12 12.09z" fill="#bfcbd9" p-id="2861"></path><path d="M706.51 575.59a172.56 172.56 0 1 0 172.55 172.55 172.55 172.55 0 0 0-172.55-172.55zM773.85 764a15 15 0 1 1 0 30H726v59.3a15 15 0 0 1-30 0V794h-47.84a15 15 0 0 1 0-30H696v-34h-47.84a15 15 0 1 1 0-30h26.64L653 678.22A15 15 0 0 1 674.19 657L711 693.83l36.53-36.54a15 15 0 0 1 21.22 21.21L747.22 700h26.63a15 15 0 0 1 0 30H726v34z" fill="#bfcbd9" p-id="2862"></path></svg>