<?xml version="1.0" standalone="no"?><!DOCTYPE svg PUBLIC "-//W3C//DTD SVG 1.1//EN" "http://www.w3.org/Graphics/SVG/1.1/DTD/svg11.dtd"><svg t="1678147964506" class="icon" viewBox="0 0 1024 1024" version="1.1" xmlns="http://www.w3.org/2000/svg" p-id="3114" xmlns:xlink="http://www.w3.org/1999/xlink" width="200" height="200"><path d="M576 192a42.666667 42.666667 0 0 1 42.666667 42.666667v170.666666h219.370666a42.666667 42.666667 0 0 1 27.349334 9.898667L965.973333 499.2A42.666667 42.666667 0 0 1 981.333333 531.968V746.666667a42.666667 42.666667 0 0 1-42.666666 42.666666h-44.437334a128.042667 128.042667 0 0 1-252.458666 0h-195.541334a128.042667 128.042667 0 0 1-252.458666 0H106.666667a42.666667 42.666667 0 0 1-42.666667-42.666666V234.666667a42.666667 42.666667 0 0 1 42.666667-42.666667h469.333333zM320 704a64 64 0 1 0 0 128 64 64 0 0 0 0-128z m448 0a64 64 0 1 0 0 128 64 64 0 0 0 0-128z m64-234.666667H618.666667v256h28.608a128.042667 128.042667 0 0 1 241.450666 0H917.333333v-187.413333L832 469.333333zM554.666667 256H128v469.333333h71.274667a128.042667 128.042667 0 0 1 241.450666 0H554.666667V256z m-173.248 291.626667a16 16 0 0 1-22.634667 0l-15.082667-15.104a16 16 0 0 1 0-22.613334l29.866667-29.909333H208a16 16 0 0 1-16-16v-21.333333a16 16 0 0 1 16-16h165.589333l-29.888-29.909334a16 16 0 0 1 0-22.613333l15.082667-15.082667a16 16 0 0 1 22.613333 0l94.293334 94.272z" fill="#bfcbd9" p-id="3115"></path></svg>