<?xml version="1.0" standalone="no"?><!DOCTYPE svg PUBLIC "-//W3C//DTD SVG 1.1//EN" "http://www.w3.org/Graphics/SVG/1.1/DTD/svg11.dtd"><svg t="1676509222864" class="icon" viewBox="0 0 1024 1024" version="1.1" xmlns="http://www.w3.org/2000/svg" p-id="3585" xmlns:xlink="http://www.w3.org/1999/xlink" width="200" height="200"><path d="M993.28 875.52H40.96c-14.336 0-25.6-11.264-25.6-25.6V189.44c0-14.336 11.264-25.6 25.6-25.6h952.32c14.336 0 25.6 11.264 25.6 25.6v660.48c0 14.336-11.264 25.6-25.6 25.6zM66.56 824.32h901.12V215.04H66.56v609.28z" p-id="3586"></path><path d="M908.8 327.168h-312.32c-14.336 0-25.6-11.264-25.6-25.6s11.264-25.6 25.6-25.6h312.32c14.336 0 25.6 11.264 25.6 25.6s-11.264 25.6-25.6 25.6zM908.8 448.512h-312.32c-14.336 0-25.6-11.264-25.6-25.6s11.264-25.6 25.6-25.6h312.32c14.336 0 25.6 11.264 25.6 25.6s-11.264 25.6-25.6 25.6zM908.8 570.368h-196.096c-14.336 0-25.6-11.264-25.6-25.6s11.264-25.6 25.6-25.6h196.096c14.336 0 25.6 11.264 25.6 25.6s-11.264 25.6-25.6 25.6zM336.384 589.312c-72.192 0-131.072-58.88-131.072-131.072 0-72.192 58.88-131.072 131.072-131.072s131.072 58.88 131.072 131.072c0 72.192-58.88 131.072-131.072 131.072z m0-210.944c-44.032 0-79.872 35.84-79.872 79.872s35.84 79.872 79.872 79.872 79.872-35.84 79.872-79.872-35.84-79.872-79.872-79.872z" p-id="3587"></path><path d="M576.512 848.896c-14.336 0-25.6-11.264-25.6-25.6 0-118.272-96.256-214.528-214.528-214.528-118.272 0-214.528 96.256-214.528 214.528 0 14.336-11.264 25.6-25.6 25.6s-25.6-11.264-25.6-25.6c0-146.432 119.296-265.728 265.728-265.728 146.432 0 265.728 119.296 265.728 265.728 0 14.336-11.264 25.6-25.6 25.6z" p-id="3588"></path></svg>