<?xml version="1.0" standalone="no"?><!DOCTYPE svg PUBLIC "-//W3C//DTD SVG 1.1//EN" "http://www.w3.org/Graphics/SVG/1.1/DTD/svg11.dtd"><svg t="1676507297805" class="icon" viewBox="0 0 1024 1024" version="1.1" xmlns="http://www.w3.org/2000/svg" p-id="3413" xmlns:xlink="http://www.w3.org/1999/xlink" width="200" height="200"><path d="M680.937 457.146h111.285V568.43H680.937V457.146zM235.799 234.577h111.284V345.86H235.8V234.577zM402.726 234.577H514.01V345.86H402.726V234.577zM235.799 457.146h111.284V568.43H235.8V457.146zM402.726 457.146H514.01V568.43H402.726V457.146zM235.799 679.715h111.284v111.284H235.8V679.715zM402.726 679.715H514.01v111.284H402.726V679.715zM680.937 679.715h111.285v111.284H680.937V679.715z" p-id="3414"></path><path d="M929.316 900.68h-25.81V373.708c0-22.306-8.695-43.28-24.507-59.01-15.758-15.759-36.68-24.454-58.957-24.454H625.295V151.14c0-22.306-8.694-43.28-24.506-59.01-15.758-15.759-36.68-24.454-58.957-24.454H207.978c-22.278 0-43.254 8.694-58.956 24.426-15.813 15.73-24.507 36.705-24.507 59.037V900.68H94.684c-15.377 0-27.822 12.444-27.822 27.822s12.444 27.822 27.822 27.822h834.634c15.377 0 27.822-12.444 27.822-27.822s-12.446-27.822-27.824-27.822zM820.042 345.888c7.444 0 14.4 2.907 19.67 8.178 5.271 5.243 8.152 12.225 8.152 19.642V900.68h-222.57V345.888h194.748zM180.157 151.14c0-7.443 2.88-14.426 8.15-19.67 5.271-5.244 12.227-8.151 19.671-8.151h333.854c7.443 0 14.399 2.907 19.67 8.178 5.271 5.243 8.152 12.225 8.152 19.642V900.68H180.157V151.14z" p-id="3415"></path></svg>