<?xml version="1.0" standalone="no"?><!DOCTYPE svg PUBLIC "-//W3C//DTD SVG 1.1//EN" "http://www.w3.org/Graphics/SVG/1.1/DTD/svg11.dtd"><svg t="1676511894513" class="icon" viewBox="0 0 1024 1024" version="1.1" xmlns="http://www.w3.org/2000/svg" p-id="15039" xmlns:xlink="http://www.w3.org/1999/xlink" width="200" height="200"><path d="M827.6 139.2h-632c-31.1 0-56.5 25.3-56.5 56.5v631.9c0 31.2 25.3 56.5 56.5 56.5h632c31.1 0 56.5-25.3 56.5-56.5V195.7c-0.1-31.2-25.4-56.5-56.5-56.5z m-11.3 390.6L529.7 816.4h-55.4l342-342v55.4zM378.5 816.4h-74.1l511.9-511.9v74.1L378.5 816.4zM206.9 457.6l250.5-251.1-6.1 0.5h61.1L206.9 512.3v-54.7z m0 150.5l401.2-401.2h58.8l-460 459.9v-58.7z m154.3-401.2L206.9 361.7V206.9h154.3zM206.9 762.7L762.7 207h53.7v5.4l-1.8-1.8-592.1 592 13.9 13.9h-29.5v-53.8z m418.6 53.7l190.8-190.8v190.8H625.5z" fill="#bfcbd9" p-id="15040"></path><path d="M215.6 237.6h-95.1c-12.5 0-22.6-10.1-22.6-22.6v-95.1c0-12.5 10.1-22.6 22.6-22.6h95.1c12.5 0 22.6 10.1 22.6 22.6V215c0 12.5-10.1 22.6-22.6 22.6" fill="#bfcbd9" p-id="15041"></path><path d="M215.6 271.5h-95.1C89.3 271.5 64 246.2 64 215v-95.1c0-31.2 25.3-56.5 56.5-56.5h95.1c31.1 0 56.5 25.3 56.5 56.5V215c0 31.2-25.3 56.5-56.5 56.5z m-83.8-67.7h72.6v-72.6h-72.6v72.6z" fill="#bfcbd9" p-id="15042"></path><path d="M903.8 237.6h-95.1c-12.5 0-22.6-10.1-22.6-22.6v-95.1c0-12.5 10.1-22.6 22.6-22.6h95.1c12.5 0 22.6 10.1 22.6 22.6V215c0.1 12.5-10.1 22.6-22.6 22.6" fill="#bfcbd9" p-id="15043"></path><path d="M903.9 271.5h-95.1c-31.2 0-56.5-25.3-56.5-56.5v-95.1c0-31.2 25.4-56.5 56.5-56.5h95.1c31.1 0 56.5 25.3 56.5 56.5V215c-0.1 31.2-25.4 56.5-56.5 56.5zM820 203.8h72.6v-72.6H820v72.6z" fill="#bfcbd9" p-id="15044"></path><path d="M215.6 925.7h-95.1c-12.5 0-22.6-10.1-22.6-22.6V808c0-12.5 10.1-22.6 22.6-22.6h95.1c12.5 0 22.6 10.1 22.6 22.6v95.1c0 12.5-10.1 22.6-22.6 22.6" fill="#bfcbd9" p-id="15045"></path><path d="M215.6 959.6h-95.1c-31.2 0-56.5-25.3-56.5-56.5V808c0-31.2 25.3-56.5 56.5-56.5h95.1c31.1 0 56.5 25.3 56.5 56.5v95.1c0 31.1-25.3 56.5-56.5 56.5z m-83.8-67.8h72.6v-72.6h-72.6v72.6z" fill="#bfcbd9" p-id="15046"></path><path d="M903.8 925.7h-95.1c-12.5 0-22.6-10.1-22.6-22.6V808c0-12.5 10.1-22.6 22.6-22.6h95.1c12.5 0 22.6 10.1 22.6 22.6v95.1c0.1 12.5-10.1 22.6-22.6 22.6" fill="#bfcbd9" p-id="15047"></path><path d="M903.9 959.6h-95.1c-31.2 0-56.5-25.3-56.5-56.5V808c0-31.2 25.4-56.5 56.5-56.5h95.1c31.1 0 56.5 25.3 56.5 56.5v95.1c-0.1 31.1-25.4 56.5-56.5 56.5zM820 891.8h72.6v-72.6H820v72.6z" fill="#bfcbd9" p-id="15048"></path></svg>