<?xml version="1.0" standalone="no"?><!DOCTYPE svg PUBLIC "-//W3C//DTD SVG 1.1//EN" "http://www.w3.org/Graphics/SVG/1.1/DTD/svg11.dtd"><svg t="1676511507459" class="icon" viewBox="0 0 1030 1024" version="1.1" xmlns="http://www.w3.org/2000/svg" p-id="10184" xmlns:xlink="http://www.w3.org/1999/xlink" width="201.171875" height="200"><path d="M497.152 1024H43.008c-14.336 0-25.6-11.264-25.6-25.6V40.96c0-14.336 11.264-25.6 25.6-25.6h454.144c14.336 0 25.6 11.264 25.6 25.6v957.44c0 14.336-11.264 25.6-25.6 25.6z m-428.544-51.2h402.944V66.56H68.608v906.24zM769.536 942.08c-89.6 0-162.304-72.704-162.304-162.304s72.704-162.304 162.304-162.304 162.304 72.704 162.304 162.304-72.704 162.304-162.304 162.304z m0-273.408c-61.44 0-111.104 49.664-111.104 111.104s49.664 111.104 111.104 111.104 111.104-49.664 111.104-111.104-49.664-111.104-111.104-111.104z" p-id="10185" fill="#bfcbd9"></path><path d="M768.512 648.192c-14.336 0-25.6-11.264-25.6-25.6v-50.176c0-14.336 11.264-25.6 25.6-25.6s25.6 11.264 25.6 25.6v50.176c0 14.336-11.264 25.6-25.6 25.6zM656.896 694.272c-6.656 0-13.312-2.56-17.92-7.68l-34.816-34.816c-10.24-10.24-10.24-26.112 0-36.352s26.112-10.24 36.352 0l34.816 34.816c10.24 10.24 10.24 26.112 0 36.352-5.12 5.12-11.776 7.68-18.432 7.68zM611.84 805.888H563.2c-14.336 0-25.6-11.264-25.6-25.6s11.264-25.6 25.6-25.6h48.64c14.336 0 25.6 11.264 25.6 25.6s-11.264 25.6-25.6 25.6zM623.104 952.32c-6.656 0-13.312-2.56-18.432-7.68-9.728-10.24-9.728-26.112 0-36.352l36.352-35.84c10.24-9.728 26.112-9.728 36.352 0 9.728 10.24 9.728 26.112 0 36.352l-36.352 35.84c-5.12 5.12-11.264 7.68-17.92 7.68zM772.096 1011.712c-14.336 0-25.6-11.264-25.6-25.6v-49.664c0-14.336 11.264-25.6 25.6-25.6s25.6 11.264 25.6 25.6v49.664c0 14.336-11.264 25.6-25.6 25.6zM916.992 950.784c-6.656 0-13.312-2.56-18.432-7.68l-34.304-35.328c-9.728-10.24-9.728-26.112 0.512-36.352 10.24-9.728 26.112-9.728 36.352 0.512l34.304 35.328c9.728 10.24 9.728 26.112-0.512 36.352-5.12 4.608-11.264 7.168-17.92 7.168zM977.92 803.328h-50.176c-14.336 0-25.6-11.264-25.6-25.6s11.264-25.6 25.6-25.6h50.176c14.336 0 25.6 11.264 25.6 25.6s-11.264 25.6-25.6 25.6zM881.664 693.248c-6.656 0-12.8-2.56-17.92-7.168-10.24-9.728-10.24-26.112-0.512-36.352l34.304-35.328c9.728-10.24 26.112-10.24 36.352-0.512s10.24 26.112 0.512 36.352l-34.304 35.328c-5.12 5.12-11.776 7.68-18.432 7.68zM240.64 252.928H77.312c-14.336 0-25.6-11.264-25.6-25.6s11.264-25.6 25.6-25.6H240.64c14.336 0 25.6 11.264 25.6 25.6s-11.264 25.6-25.6 25.6zM240.64 643.584H77.312c-14.336 0-25.6-11.264-25.6-25.6s11.264-25.6 25.6-25.6H240.64c14.336 0 25.6 11.264 25.6 25.6s-11.264 25.6-25.6 25.6zM351.232 448.512H77.312c-14.336 0-25.6-11.264-25.6-25.6s11.264-25.6 25.6-25.6h273.92c14.336 0 25.6 11.264 25.6 25.6s-11.264 25.6-25.6 25.6zM351.232 839.68H77.312c-14.336 0-25.6-11.264-25.6-25.6s11.264-25.6 25.6-25.6h273.92c14.336 0 25.6 11.264 25.6 25.6s-11.264 25.6-25.6 25.6z" p-id="10186" fill="#bfcbd9"></path></svg>