<?xml version="1.0" standalone="no"?><!DOCTYPE svg PUBLIC "-//W3C//DTD SVG 1.1//EN" "http://www.w3.org/Graphics/SVG/1.1/DTD/svg11.dtd"><svg t="1677541240668" class="icon" viewBox="0 0 1028 1024" version="1.1" xmlns="http://www.w3.org/2000/svg" p-id="3969" xmlns:xlink="http://www.w3.org/1999/xlink" width="200.78125" height="200"><path d="M955.57056 783.104a24.512 24.512 0 1 1 0-48.96 23.232 23.232 0 0 0 19.136-9.856 25.088 25.088 0 0 0 2.944-22.72 315.008 315.008 0 0 0-196.864-191.552 24.448 24.448 0 1 1 15.232-46.528 364.16 364.16 0 0 1 227.712 221.568 74.24 74.24 0 0 1-9.088 67.456 71.36 71.36 0 0 1-59.072 30.592z" fill="#bfcbd9" p-id="3970"></path><path d="M773.68256 513.92a24.512 24.512 0 0 1-11.84-45.888 184.32 184.32 0 0 0 95.488-161.408c0-89.472-63.872-165.76-151.744-181.312a24.576 24.576 0 0 1 8.512-48.256 232.832 232.832 0 0 1 192.192 229.568 233.408 233.408 0 0 1-120.96 204.288 23.616 23.616 0 0 1-11.648 3.008zM750.83456 832.064a24.448 24.448 0 1 1 0-48.96 32 32 0 0 0 26.368-13.632 33.6 33.6 0 0 0 4.032-31.104 377.536 377.536 0 0 0-236.096-229.76 24.576 24.576 0 0 1-15.68-30.912 24.512 24.512 0 0 1 30.848-15.616 426.688 426.688 0 0 1 266.944 259.84c9.152 25.472 5.376 53.824-10.176 75.84a80 80 0 0 1-66.24 34.304zM81.58656 832.064c-26.752 0-50.944-12.48-66.368-34.368a83.2 83.2 0 0 1-10.176-75.776 426.752 426.752 0 0 1 267.008-259.84 24.448 24.448 0 0 1 15.232 46.528 377.344 377.344 0 0 0-236.096 229.76 33.6 33.6 0 0 0 4.032 31.104 32 32 0 0 0 26.368 13.632 24.448 24.448 0 0 1 0 48.96z" fill="#bfcbd9" p-id="3971"></path><path d="M416.17856 543.552a272.064 272.064 0 0 1-271.744-271.808A272.064 272.064 0 0 1 416.17856 0a272.064 272.064 0 0 1 271.808 271.744A272.128 272.128 0 0 1 416.17856 543.552z m0-494.592c-122.88 0-222.784 99.968-222.784 222.784S293.29856 494.592 416.17856 494.592s222.784-99.968 222.784-222.848S539.05856 48.96 416.17856 48.96z" fill="#bfcbd9" p-id="3972"></path></svg>